<svg width="20" height="20" viewBox="0 0 20 20" fill="none" xmlns="http://www.w3.org/2000/svg">
<g clip-path="url(#clip0_51_346)">
<path d="M5.41658 15.8333H3.74992C3.51992 15.8333 3.33325 15.6467 3.33325 15.4167C3.33325 15.1867 3.51992 15 3.74992 15H5.41658C5.64658 15 5.83325 15.1867 5.83325 15.4167C5.83325 15.6467 5.64658 15.8333 5.41658 15.8333Z" fill="#868889"/>
<path d="M18.9583 15.8335H17.9166C17.6866 15.8335 17.5 15.6468 17.5 15.4168C17.5 15.1868 17.6866 15.0002 17.9166 15.0002H18.6125L19.1741 12.0068C19.1666 10.4752 17.8583 9.16683 16.25 9.16683H13.5141L12.1883 15.0002H14.5833C14.8133 15.0002 15 15.1868 15 15.4168C15 15.6468 14.8133 15.8335 14.5833 15.8335H11.6666C11.54 15.8335 11.42 15.776 11.3408 15.6768C11.2616 15.5785 11.2316 15.4485 11.26 15.3252L12.775 8.6585C12.8183 8.46766 12.9866 8.3335 13.1816 8.3335H16.25C18.3175 8.3335 20 10.016 20 12.0835L19.3675 15.4935C19.3308 15.691 19.1591 15.8335 18.9583 15.8335Z" fill="#868889"/>
<path d="M16.2501 17.5001C15.1017 17.5001 14.1667 16.566 14.1667 15.4168C14.1667 14.2677 15.1017 13.3335 16.2501 13.3335C17.3984 13.3335 18.3334 14.2677 18.3334 15.4168C18.3334 16.566 17.3984 17.5001 16.2501 17.5001ZM16.2501 14.1668C15.5609 14.1668 15.0001 14.7277 15.0001 15.4168C15.0001 16.106 15.5609 16.6668 16.2501 16.6668C16.9392 16.6668 17.5001 16.106 17.5001 15.4168C17.5001 14.7277 16.9392 14.1668 16.2501 14.1668Z" fill="#868889"/>
<path d="M7.08333 17.5001C5.935 17.5001 5 16.566 5 15.4168C5 14.2677 5.935 13.3335 7.08333 13.3335C8.23167 13.3335 9.16667 14.2677 9.16667 15.4168C9.16667 16.566 8.23167 17.5001 7.08333 17.5001ZM7.08333 14.1668C6.39417 14.1668 5.83333 14.7277 5.83333 15.4168C5.83333 16.106 6.39417 16.6668 7.08333 16.6668C7.7725 16.6668 8.33333 16.106 8.33333 15.4168C8.33333 14.7277 7.7725 14.1668 7.08333 14.1668Z" fill="#868889"/>
<path d="M5.41675 8.33334H2.08341C1.85341 8.33334 1.66675 8.14667 1.66675 7.91667C1.66675 7.68667 1.85341 7.5 2.08341 7.5H5.41675C5.64675 7.5 5.83341 7.68667 5.83341 7.91667C5.83341 8.14667 5.64675 8.33334 5.41675 8.33334Z" fill="#868889"/>
<path d="M5.41658 10.8333H1.24992C1.01992 10.8333 0.833252 10.6467 0.833252 10.4167C0.833252 10.1867 1.01992 10 1.24992 10H5.41658C5.64658 10 5.83325 10.1867 5.83325 10.4167C5.83325 10.6467 5.64658 10.8333 5.41658 10.8333Z" fill="#868889"/>
<path d="M5.41667 13.3333H0.416667C0.186667 13.3333 0 13.1467 0 12.9167C0 12.6867 0.186667 12.5 0.416667 12.5H5.41667C5.64667 12.5 5.83333 12.6867 5.83333 12.9167C5.83333 13.1467 5.64667 13.3333 5.41667 13.3333Z" fill="#868889"/>
<path d="M11.6666 15.8335H8.74992C8.51992 15.8335 8.33325 15.6468 8.33325 15.4168C8.33325 15.1868 8.51992 15.0002 8.74992 15.0002H11.3341L13.2274 6.66683H3.74992C3.51992 6.66683 3.33325 6.48016 3.33325 6.25016C3.33325 6.02016 3.51992 5.8335 3.74992 5.8335H13.7499C13.8766 5.8335 13.9966 5.891 14.0758 5.99016C14.1549 6.0885 14.1849 6.2185 14.1566 6.34183L12.0733 15.5085C12.0299 15.6993 11.8608 15.8335 11.6666 15.8335Z" fill="#868889"/>
</g>
<defs>
<clipPath id="clip0_51_346">
<rect width="20" height="20" fill="white"/>
</clipPath>
</defs>
</svg>
